<?xml version="1.0" encoding="iso-8859-1"?>
<!-- Generator: Adobe Illustrator 18.1.1, SVG Export Plug-In . SVG Version: 6.00 Build 0)  -->
<svg version="1.1" id="Capa_1" xmlns="http://www.w3.org/2000/svg" xmlns:xlink="http://www.w3.org/1999/xlink" x="0px" y="0px"
	 viewBox="0 0 289.179 289.179" style="enable-background:new 0 0 289.179 289.179;" xml:space="preserve">
<g>
	<path style="fill:#ffd700;" d="M21.756,282.081h245.666c12.015,0,21.756-9.741,21.756-21.756V28.854
		c0-12.015-9.741-21.756-21.756-21.756H21.756C9.741,7.098,0,16.839,0,28.854v231.47C0,272.339,9.741,282.081,21.756,282.081z
		 M238.416,37.573h25.379v25.379h-25.379V37.573z M238.416,86.525h25.379v25.379h-25.379V86.525z M238.416,135.476h25.379v25.379
		h-25.379V135.476z M238.416,184.428h25.379v25.379h-25.379V184.428z M238.416,233.379h25.379v25.379h-25.379V233.379z
		 M27.195,35.512h25.379V60.89H27.195V35.512z M27.195,84.463h25.379v25.379H27.195V84.463z M27.195,133.415h25.379v25.379H27.195
		V133.415z M27.195,182.366h25.379v25.379H27.195V182.366z M27.195,231.318h25.379v25.379H27.195V231.318z"/>
</g>
<g>
</g>
<g>
</g>
<g>
</g>
<g>
</g>
<g>
</g>
<g>
</g>
<g>
</g>
<g>
</g>
<g>
</g>
<g>
</g>
<g>
</g>
<g>
</g>
<g>
</g>
<g>
</g>
<g>
</g>
</svg>
